<svg width="157.873" height="153.992" viewBox="0 0 41.771 40.744" xml:space="preserve" xmlns="http://www.w3.org/2000/svg"><defs><clipPath clipPathUnits="userSpaceOnUse" id="a"><path style="clip-rule:evenodd;fill:#0f1a2b;fill-opacity:1;fill-rule:evenodd;stroke-width:.264582" class="powerclip" d="M27.181 17.724h115.744v113.494H27.181zm60.917 60.012c5.325-5.272 5.366-13.863.091-19.185-5.274-5.323-13.871-5.364-19.197-.092-5.326 5.272-5.366 13.863-.091 19.185 5.274 5.322 13.871 5.363 19.197.092zm7.23 3.059-.936-.945a19.902 19.902 0 0 1-4.238 4.196l.936.944c1.243-.562 3.664-2.958 4.238-4.195zm-1.5 6.959.804.81c1.368-.058 4.167-2.83 4.238-4.195l-.803-.81c-.231 1.388-2.846 3.977-4.238 4.195zm-.072 1.064c-.398 1.34-.247 2.683.772 3.711l9.357 9.441c5.433 5.481 13.745-2.744 8.311-8.226l-9.358-9.442c-1.019-1.028-2.36-1.192-3.706-.807l-4.27-4.308c5.214-7.643 4.459-18.15-2.299-24.967-7.667-7.736-20.163-7.796-27.904-.133s-7.801 20.15-.133 27.887c6.756 6.817 17.262 7.672 24.96 2.536zM78.45 76.046a7.954 7.954 0 0 1-6.97-4.298 7.943 7.943 0 0 1 .52-8.169l-1.802-3.48c-3.328 3.468-4.255 8.8-1.923 13.305 2.331 4.506 7.22 6.832 11.976 6.123z"/></clipPath></defs><path style="fill:#77bae8;fill-opacity:1;stroke:#77bae8;stroke-width:12.6778" d="M105.619 119.801c-.374.178-41.012.019-41.384-.162-.372-.181-25.585-32.053-25.675-32.457-.09-.404 9.108-39.987 9.367-40.31.26-.322 36.942-17.81 37.356-17.809.414.002 36.958 17.778 37.215 18.102.256.325 9.144 39.98 9.05 40.382-.094.404-25.556 32.076-25.93 32.254z" transform="matrix(.395 -.00188 .00189 .39376 -12.876 -8.788)" clip-path="url(#a)"/></svg>